<?xml version="1.0" encoding="utf-8"?>
<!-- Generator: Adobe Illustrator 19.2.1, SVG Export Plug-In . SVG Version: 6.00 Build 0)  -->
<svg version="1.1" id="Layer_1" xmlns="http://www.w3.org/2000/svg" xmlns:xlink="http://www.w3.org/1999/xlink" x="0px" y="0px"
	 viewBox="0 0 149.2 172.2" style="enable-background:new 0 0 149.2 172.2;" xml:space="preserve">
<style type="text/css">
	.st0{fill:#585858;}
	.st1{fill:#FFFFFF;}
</style>
<polygon class="st0" points="149.2,129.2 74.6,172.2 0,129.2 0,43.1 74.6,0 149.2,43.1 "/>
<g>
	<path class="st1" d="M18.3,58.3h33.1c5.5,0,9.8,1.4,12.7,4.1c3,2.7,4.4,6.1,4.4,10.2c0,3.4-1.1,6.3-3.2,8.7
		c-1.4,1.6-3.5,2.9-6.2,3.8c4.1,1,7.1,2.7,9.1,5.1c1.9,2.4,2.9,5.4,2.9,9.1c0,3-0.7,5.6-2.1,8c-1.4,2.4-3.3,4.2-5.7,5.6
		c-1.5,0.9-3.7,1.5-6.7,1.9c-4,0.5-6.6,0.8-7.9,0.8H18.3V58.3z M36.1,80.8h7.7c2.8,0,4.7-0.5,5.8-1.4c1.1-1,1.6-2.3,1.6-4.1
		c0-1.7-0.5-3-1.6-3.9c-1.1-0.9-3-1.4-5.6-1.4h-7.8V80.8z M36.1,103.3h9c3,0,5.2-0.5,6.4-1.6c1.2-1.1,1.9-2.5,1.9-4.4
		c0-1.7-0.6-3.1-1.9-4.1c-1.2-1-3.4-1.5-6.5-1.5h-9V103.3z"/>
	<path class="st1" d="M80.5,58.3h33.1c5.5,0,9.8,1.4,12.7,4.1c3,2.7,4.4,6.1,4.4,10.2c0,3.4-1.1,6.3-3.2,8.7
		c-1.4,1.6-3.5,2.9-6.2,3.8c4.1,1,7.1,2.7,9.1,5.1c1.9,2.4,2.9,5.4,2.9,9.1c0,3-0.7,5.6-2.1,8c-1.4,2.4-3.3,4.2-5.7,5.6
		c-1.5,0.9-3.7,1.5-6.7,1.9c-4,0.5-6.6,0.8-7.9,0.8H80.5V58.3z M98.3,80.8h7.7c2.8,0,4.7-0.5,5.8-1.4c1.1-1,1.6-2.3,1.6-4.1
		c0-1.7-0.5-3-1.6-3.9c-1.1-0.9-3-1.4-5.6-1.4h-7.8V80.8z M98.3,103.3h9c3,0,5.2-0.5,6.4-1.6c1.2-1.1,1.9-2.5,1.9-4.4
		c0-1.7-0.6-3.1-1.9-4.1c-1.2-1-3.4-1.5-6.5-1.5h-9V103.3z"/>
</g>
</svg>
